<svg xmlns="http://www.w3.org/2000/svg" viewBox="0 0 32 32" fill="none">
  <defs>
    <radialGradient id="coin" cx="36%" cy="26%" r="68%">
      <stop offset="0%" stop-color="#ffffff"/>
      <stop offset="28%" stop-color="#e4e4e4"/>
      <stop offset="55%" stop-color="#b0b0b0"/>
      <stop offset="78%" stop-color="#6e6e6e"/>
      <stop offset="100%" stop-color="#3a3a3a"/>
    </radialGradient>
    <radialGradient id="shine" cx="30%" cy="22%" r="45%">
      <stop offset="0%" stop-color="#ffffff" stop-opacity="0.85"/>
      <stop offset="100%" stop-color="#ffffff" stop-opacity="0"/>
    </radialGradient>
    <linearGradient id="emblem" x1="0%" y1="0%" x2="100%" y2="100%">
      <stop offset="0%" stop-color="#8a8a8a"/>
      <stop offset="100%" stop-color="#4a4a4a"/>
    </linearGradient>
  </defs>

  <circle cx="16" cy="16" r="15.5" fill="url(#coin)"/>
  <circle cx="16" cy="16" r="15.5" fill="url(#shine)"/>
  <circle cx="16" cy="16" r="15.5" stroke="#2a2a2a" stroke-opacity="0.35" stroke-width="0.5"/>

  <circle cx="16" cy="16" r="12.2" stroke="#000" stroke-opacity="0.14" stroke-width="0.6"/>
  <circle cx="16" cy="16" r="10.8" stroke="#fff" stroke-opacity="0.22" stroke-width="0.35"/>

  <g transform="translate(16 15.5) scale(0.118) translate(-50 -46)" fill="url(#emblem)">
    <circle cx="28" cy="34" r="8"/>
    <path d="M18,60 L18,49 A10,10 0 0 1 38,49 L38,60 Z"/>
    <circle cx="72" cy="34" r="8"/>
    <path d="M62,60 L62,49 A10,10 0 0 1 82,49 L82,60 Z"/>
    <circle cx="50" cy="28" r="9.5"/>
    <path d="M38.5,64 L38.5,50 A11.5,11.5 0 0 1 61.5,50 L61.5,64 Z"/>
  </g>
</svg>
